<svg width="105" height="92" viewBox="0 0 105 92" fill="none" xmlns="http://www.w3.org/2000/svg">
<path fill-rule="evenodd" clip-rule="evenodd" d="M44.3751 33.2135C44.3751 30.9717 46.1925 29.1543 48.4343 29.1543H54.3368C81.3004 29.1543 100.022 56.007 90.6978 81.307C88.8533 86.3118 84.0848 89.6364 78.751 89.6364H19.6283C4.24484 89.6364 -3.27042 70.8695 7.86097 60.2514L20.5386 48.1585C22.1608 46.6111 24.7302 46.6717 26.2776 48.2939C27.825 49.9161 27.7643 52.4855 26.1421 54.0329L13.4645 66.1259C7.63374 71.6877 11.5703 81.518 19.6283 81.518H78.751C80.6838 81.518 82.4118 80.3132 83.0803 78.4996C90.4512 58.4998 75.6516 37.2727 54.3368 37.2727H48.4343C46.1925 37.2727 44.3751 35.4554 44.3751 33.2135Z" fill="#FF5B00" stroke="#FF5B00" stroke-width="3.27273" stroke-linecap="round"/>
<path fill-rule="evenodd" clip-rule="evenodd" d="M61.5263 58.7865C61.5263 61.0283 59.7089 62.8457 57.4671 62.8457H51.5645C24.601 62.8457 5.87923 35.993 15.2036 10.693C17.0481 5.68823 21.8166 2.36364 27.1504 2.36364H86.273C101.657 2.36364 109.172 21.1305 98.0404 31.7486L85.3627 43.8415C83.7406 45.3889 81.1711 45.3283 79.6238 43.7061C78.0764 42.0839 78.1371 39.5145 79.7592 37.9671L92.4369 25.8741C98.2676 20.3123 94.331 10.482 86.273 10.482H27.1504C25.2175 10.482 23.4895 11.6868 22.8211 13.5004C15.4502 33.5002 30.2498 54.7273 51.5645 54.7273H57.4671C59.7089 54.7273 61.5263 56.5446 61.5263 58.7865Z" fill="#FF5B00" stroke="#FF5B00" stroke-width="3.27273" stroke-linecap="round"/>
</svg>
