<svg width="32" height="32" viewBox="0 0 32 32" fill="none" xmlns="http://www.w3.org/2000/svg">
<rect x="1" y="1" width="30" height="30" rx="15" fill="#FF5B00"/>
<rect x="1" y="1" width="30" height="30" rx="15" stroke="white" stroke-width="2"/>
<mask id="path-2-outside-1_40002031_2307" maskUnits="userSpaceOnUse" x="7" y="8" width="18" height="16" fill="black">
<rect fill="white" x="7" y="8" width="18" height="16"/>
<path fill-rule="evenodd" clip-rule="evenodd" d="M14.6818 14.023C14.6818 13.6763 14.9612 13.3953 15.3058 13.3953H16.2131C17.7114 13.3953 19.0442 13.938 20.0676 14.8158C20.3832 15.0864 20.6694 15.389 20.9219 15.7173C22.1156 17.2694 22.5576 19.3976 21.8022 21.4591C21.5187 22.2329 20.7857 22.747 19.9658 22.747H10.8779C8.51326 22.747 7.35807 19.8453 9.06911 18.2035L11.0178 16.3337C11.2672 16.0945 11.6621 16.1039 11.9 16.3547C12.1378 16.6055 12.1285 17.0028 11.8792 17.242L9.93044 19.1118C9.03418 19.9718 9.63929 21.4917 10.8779 21.4917H19.9658C20.2629 21.4917 20.5286 21.3055 20.6313 21.025C21.7643 17.9327 19.4894 14.6506 16.2131 14.6506H15.3058C14.9612 14.6506 14.6818 14.3696 14.6818 14.023Z"/>
<path fill-rule="evenodd" clip-rule="evenodd" d="M12.0342 9C11.1089 9 10.2817 9.58011 9.96177 10.4534C9.20454 12.5201 9.60188 14.6511 10.7405 16.2502L8.8955 18.0205C7.02023 19.8198 8.2863 23 10.8779 23H19.9658C20.8911 23 21.7183 22.4199 22.0382 21.5466C22.7955 19.4799 22.3981 17.3489 21.2595 15.7498L23.1045 13.9795C24.9798 12.1802 23.7137 9 21.1221 9H12.0342ZM9.24272 18.3866L11.0512 16.6514C11.2114 16.842 11.3829 17.0232 11.565 17.1938L9.75683 18.9288C8.69634 19.9463 9.41232 21.7447 10.8779 21.7447H19.9658C20.3683 21.7447 20.7281 21.4924 20.8673 21.1125C22.0608 17.855 19.6644 14.3976 16.2131 14.3976H15.3058C15.1001 14.3976 14.9333 14.2299 14.9333 14.023C14.9333 13.8161 15.1001 13.6484 15.3058 13.6484H16.2131C17.5702 13.6484 18.7856 14.1132 19.7426 14.8747C19.6141 15.187 19.6712 15.5597 19.918 15.82C20.1647 16.0801 20.5319 16.1552 20.848 16.0409C21.8963 17.5108 22.2626 19.4708 21.5662 21.3716C21.3191 22.046 20.6803 22.494 19.9658 22.494H10.8779C8.74023 22.494 7.69591 19.8708 9.24272 18.3866ZM10.1041 19.2949L11.9486 17.5251C12.9896 18.3526 14.3112 18.8577 15.7869 18.8577H16.6942C17.1778 18.8577 17.5697 18.4634 17.5697 17.977C17.5697 17.4907 17.1778 17.0964 16.6942 17.0964H15.7869C12.6856 17.0964 10.5322 13.9896 11.6047 11.0625C11.671 10.8815 11.8424 10.7613 12.0342 10.7613H21.1221C22.1337 10.7613 22.628 12.0027 21.8959 12.7051L20.0514 14.4749C19.0104 13.6474 17.6888 13.1423 16.2131 13.1423H15.3058C14.8222 13.1423 14.4303 13.5366 14.4303 14.023C14.4303 14.5093 14.8222 14.9036 15.3058 14.9036H16.2131C19.3144 14.9036 21.4678 18.0104 20.3953 20.9375C20.329 21.1185 20.1576 21.2387 19.9658 21.2387H10.8779C9.86625 21.2387 9.37202 19.9973 10.1041 19.2949ZM20.9219 15.7173C20.6694 15.389 20.3832 15.0864 20.0676 14.8158C20.0839 14.7957 20.1017 14.7763 20.1208 14.758L22.0696 12.8882C22.9658 12.0282 22.3607 10.5083 21.1221 10.5083H12.0342C11.7371 10.5083 11.4714 10.6945 11.3687 10.975L11.1327 10.8875C11.2719 10.5076 11.6317 10.2553 12.0342 10.2553H21.1221C22.5877 10.2553 23.3037 12.0537 22.2432 13.0712L20.435 14.8062C20.6171 14.9768 20.7886 15.158 20.9488 15.3486L22.7573 13.6134C24.3041 12.1292 23.2598 9.50602 21.1221 9.50602H12.0342C11.3197 9.50602 10.6809 9.954 10.4338 10.6284L10.1978 10.5409C10.4813 9.76706 11.2143 9.25301 12.0342 9.25301H21.1221C23.4867 9.25301 24.6419 12.1547 22.9309 13.7965L20.9822 15.6663C20.9629 15.6848 20.9427 15.7018 20.9219 15.7173Z"/>
<path d="M12.0342 9.25301C11.2143 9.25301 10.4813 9.76706 10.1978 10.5409L10.4338 10.6284C10.6809 9.954 11.3197 9.50602 12.0342 9.50602H21.1221C23.2598 9.50602 24.3041 12.1292 22.7573 13.6134L20.9488 15.3486C20.7886 15.158 20.6171 14.9768 20.435 14.8062L22.2432 13.0712C23.3037 12.0537 22.5877 10.2553 21.1221 10.2553H12.0342C11.6317 10.2553 11.2719 10.5076 11.1327 10.8875L11.3687 10.975C11.4714 10.6945 11.7371 10.5083 12.0342 10.5083H21.1221C22.3607 10.5083 22.9658 12.0282 22.0696 12.8882L20.1208 14.758C20.1017 14.7763 20.0839 14.7957 20.0676 14.8158C20.3832 15.0864 20.6694 15.389 20.9219 15.7173C20.9427 15.7018 20.9629 15.6848 20.9822 15.6663L22.9309 13.7965C24.6419 12.1547 23.4867 9.25301 21.1221 9.25301H12.0342Z"/>
</mask>
<path fill-rule="evenodd" clip-rule="evenodd" d="M14.6818 14.023C14.6818 13.6763 14.9612 13.3953 15.3058 13.3953H16.2131C17.7114 13.3953 19.0442 13.938 20.0676 14.8158C20.3832 15.0864 20.6694 15.389 20.9219 15.7173C22.1156 17.2694 22.5576 19.3976 21.8022 21.4591C21.5187 22.2329 20.7857 22.747 19.9658 22.747H10.8779C8.51326 22.747 7.35807 19.8453 9.06911 18.2035L11.0178 16.3337C11.2672 16.0945 11.6621 16.1039 11.9 16.3547C12.1378 16.6055 12.1285 17.0028 11.8792 17.242L9.93044 19.1118C9.03418 19.9718 9.63929 21.4917 10.8779 21.4917H19.9658C20.2629 21.4917 20.5286 21.3055 20.6313 21.025C21.7643 17.9327 19.4894 14.6506 16.2131 14.6506H15.3058C14.9612 14.6506 14.6818 14.3696 14.6818 14.023Z" fill="white"/>
<path fill-rule="evenodd" clip-rule="evenodd" d="M12.0342 9C11.1089 9 10.2817 9.58011 9.96177 10.4534C9.20454 12.5201 9.60188 14.6511 10.7405 16.2502L8.8955 18.0205C7.02023 19.8198 8.2863 23 10.8779 23H19.9658C20.8911 23 21.7183 22.4199 22.0382 21.5466C22.7955 19.4799 22.3981 17.3489 21.2595 15.7498L23.1045 13.9795C24.9798 12.1802 23.7137 9 21.1221 9H12.0342ZM9.24272 18.3866L11.0512 16.6514C11.2114 16.842 11.3829 17.0232 11.565 17.1938L9.75683 18.9288C8.69634 19.9463 9.41232 21.7447 10.8779 21.7447H19.9658C20.3683 21.7447 20.7281 21.4924 20.8673 21.1125C22.0608 17.855 19.6644 14.3976 16.2131 14.3976H15.3058C15.1001 14.3976 14.9333 14.2299 14.9333 14.023C14.9333 13.8161 15.1001 13.6484 15.3058 13.6484H16.2131C17.5702 13.6484 18.7856 14.1132 19.7426 14.8747C19.6141 15.187 19.6712 15.5597 19.918 15.82C20.1647 16.0801 20.5319 16.1552 20.848 16.0409C21.8963 17.5108 22.2626 19.4708 21.5662 21.3716C21.3191 22.046 20.6803 22.494 19.9658 22.494H10.8779C8.74023 22.494 7.69591 19.8708 9.24272 18.3866ZM10.1041 19.2949L11.9486 17.5251C12.9896 18.3526 14.3112 18.8577 15.7869 18.8577H16.6942C17.1778 18.8577 17.5697 18.4634 17.5697 17.977C17.5697 17.4907 17.1778 17.0964 16.6942 17.0964H15.7869C12.6856 17.0964 10.5322 13.9896 11.6047 11.0625C11.671 10.8815 11.8424 10.7613 12.0342 10.7613H21.1221C22.1337 10.7613 22.628 12.0027 21.8959 12.7051L20.0514 14.4749C19.0104 13.6474 17.6888 13.1423 16.2131 13.1423H15.3058C14.8222 13.1423 14.4303 13.5366 14.4303 14.023C14.4303 14.5093 14.8222 14.9036 15.3058 14.9036H16.2131C19.3144 14.9036 21.4678 18.0104 20.3953 20.9375C20.329 21.1185 20.1576 21.2387 19.9658 21.2387H10.8779C9.86625 21.2387 9.37202 19.9973 10.1041 19.2949ZM20.9219 15.7173C20.6694 15.389 20.3832 15.0864 20.0676 14.8158C20.0839 14.7957 20.1017 14.7763 20.1208 14.758L22.0696 12.8882C22.9658 12.0282 22.3607 10.5083 21.1221 10.5083H12.0342C11.7371 10.5083 11.4714 10.6945 11.3687 10.975L11.1327 10.8875C11.2719 10.5076 11.6317 10.2553 12.0342 10.2553H21.1221C22.5877 10.2553 23.3037 12.0537 22.2432 13.0712L20.435 14.8062C20.6171 14.9768 20.7886 15.158 20.9488 15.3486L22.7573 13.6134C24.3041 12.1292 23.2598 9.50602 21.1221 9.50602H12.0342C11.3197 9.50602 10.6809 9.954 10.4338 10.6284L10.1978 10.5409C10.4813 9.76706 11.2143 9.25301 12.0342 9.25301H21.1221C23.4867 9.25301 24.6419 12.1547 22.9309 13.7965L20.9822 15.6663C20.9629 15.6848 20.9427 15.7018 20.9219 15.7173Z" fill="white"/>
<path d="M12.0342 9.25301C11.2143 9.25301 10.4813 9.76706 10.1978 10.5409L10.4338 10.6284C10.6809 9.954 11.3197 9.50602 12.0342 9.50602H21.1221C23.2598 9.50602 24.3041 12.1292 22.7573 13.6134L20.9488 15.3486C20.7886 15.158 20.6171 14.9768 20.435 14.8062L22.2432 13.0712C23.3037 12.0537 22.5877 10.2553 21.1221 10.2553H12.0342C11.6317 10.2553 11.2719 10.5076 11.1327 10.8875L11.3687 10.975C11.4714 10.6945 11.7371 10.5083 12.0342 10.5083H21.1221C22.3607 10.5083 22.9658 12.0282 22.0696 12.8882L20.1208 14.758C20.1017 14.7763 20.0839 14.7957 20.0676 14.8158C20.3832 15.0864 20.6694 15.389 20.9219 15.7173C20.9427 15.7018 20.9629 15.6848 20.9822 15.6663L22.9309 13.7965C24.6419 12.1547 23.4867 9.25301 21.1221 9.25301H12.0342Z" fill="white"/>
<path d="M22.9309 13.7965L23.0001 13.8686H23.0001L22.9309 13.7965ZM20.9822 15.6663L21.0514 15.7384L21.0514 15.7384L20.9822 15.6663ZM20.1 15.6453L20.1726 15.5765L20.1 15.6453ZM20.1208 14.758L20.1901 14.8301L20.1901 14.8301L20.1208 14.758ZM22.0696 12.8882L22.0003 12.816L22.0003 12.816L22.0696 12.8882ZM11.8175 16.7368L11.7475 16.8082L11.9559 17.0121L11.9165 16.7233L11.8175 16.7368ZM11.517 16.4196L11.5354 16.3213L11.2507 16.268L11.4418 16.4856L11.517 16.4196ZM11.718 16.5293L11.6454 16.5981H11.6454L11.718 16.5293ZM12.2574 17.1253L12.1649 17.0872L12.1363 17.1567L12.1951 17.2035L12.2574 17.1253ZM12.082 16.18L12.0094 16.2489L12.082 16.18ZM11.152 15.9591L11.0706 16.0171L11.1146 16.0789L11.186 16.0531L11.152 15.9591ZM10.4338 10.6284L10.5277 10.6628V10.6628L10.4338 10.6284ZM22.7573 13.6134L22.8265 13.6855H22.8265L22.7573 13.6134ZM20.9488 15.3486L20.8723 15.4129L20.941 15.4947L21.0181 15.4208L20.9488 15.3486ZM20.435 14.8062L20.3658 14.734L20.2897 14.807L20.3666 14.8792L20.435 14.8062ZM22.2432 13.0712L22.1739 12.9991L22.1739 12.9991L22.2432 13.0712ZM11.1327 10.8875L11.0388 10.8531V10.8531L11.1327 10.8875ZM20.282 15.4707L20.3546 15.4019L20.3546 15.4019L20.282 15.4707ZM20.1825 15.2632L20.2525 15.1918L20.0441 14.9879L20.0835 15.2767L20.1825 15.2632ZM20.483 15.5804L20.4646 15.6787L20.7493 15.732L20.5582 15.5144L20.483 15.5804ZM20.9219 15.7173L20.9816 15.7975L20.9219 15.7173ZM16.6942 18.7047C17.0946 18.7047 17.4182 18.3783 17.4182 17.977H17.2182C17.2182 18.269 16.9831 18.5047 16.6942 18.5047V18.7047ZM15.7869 18.7047H16.6942V18.5047H15.7869V18.7047ZM10.1039 10.5065C8.647 14.4828 11.5719 18.7047 15.7869 18.7047V18.5047C11.7126 18.5047 8.88202 14.4227 10.2917 10.5753L10.1039 10.5065ZM12.0342 9.15301C11.172 9.15301 10.4017 9.69353 10.1039 10.5065L10.2917 10.5753C10.5609 9.84058 11.2565 9.35301 12.0342 9.35301V9.15301ZM21.1221 9.15301H12.0342V9.35301H21.1221V9.15301ZM23.0001 13.8686C24.7753 12.1654 23.5781 9.15301 21.1221 9.15301V9.35301C23.3954 9.35301 24.5086 12.1441 22.8617 13.7243L23.0001 13.8686ZM21.1221 10.6083C22.2694 10.6083 22.8325 12.0176 22.0003 12.816L22.1388 12.9603C23.0992 12.0389 22.4521 10.4083 21.1221 10.4083V10.6083ZM12.0342 10.6083H21.1221V10.4083H12.0342V10.6083ZM11.4626 11.0094C11.551 10.7681 11.7793 10.6083 12.0342 10.6083V10.4083C11.6948 10.4083 11.3919 10.621 11.2748 10.9406L11.4626 11.0094ZM15.7869 17.2494C12.5809 17.2494 10.3532 14.0372 11.4626 11.0094L11.2748 10.9406C10.1182 14.0973 12.4402 17.4494 15.7869 17.4494V17.2494ZM16.6942 17.2494H15.7869V17.4494H16.6942V17.2494ZM17.4182 17.977C17.4182 17.5757 17.0946 17.2494 16.6942 17.2494V17.4494C16.9831 17.4494 17.2182 17.6851 17.2182 17.977H17.4182ZM21.0514 15.7384L23.0001 13.8686L22.8617 13.7243L20.9129 15.5941L21.0514 15.7384ZM22.0003 12.816L20.0516 14.6858L20.1901 14.8301L22.1388 12.9603L22.0003 12.816ZM11.8874 16.6653C11.785 16.5651 11.6865 16.4611 11.5921 16.3536L11.4418 16.4856C11.5396 16.5969 11.6415 16.7045 11.7475 16.8082L11.8874 16.6653ZM11.4986 16.5179C11.5527 16.5281 11.6043 16.5547 11.6454 16.5981L11.7905 16.4605C11.7195 16.3856 11.6297 16.339 11.5354 16.3213L11.4986 16.5179ZM11.6454 16.5981C11.6866 16.6416 11.7108 16.6949 11.7184 16.7502L11.9165 16.7233C11.9036 16.6279 11.8616 16.5355 11.7905 16.4605L11.6454 16.5981ZM12.3499 17.1633C12.4928 16.8161 12.4295 16.4012 12.1546 16.1112L12.0094 16.2489C12.2281 16.4795 12.2791 16.81 12.1649 17.0872L12.3499 17.1633ZM12.1546 16.1112C11.8796 15.8213 11.4702 15.7377 11.118 15.865L11.186 16.0531C11.4659 15.952 11.7909 16.0185 12.0094 16.2489L12.1546 16.1112ZM11.2334 15.901C10.203 14.4563 9.8433 12.5307 10.5277 10.6628L10.3399 10.594C9.63141 12.5277 10.0043 14.522 11.0706 16.0171L11.2334 15.901ZM10.4686 10.5346L10.2325 10.4471L10.163 10.6346L10.399 10.7221L10.4686 10.5346ZM10.5277 10.6628C10.7604 10.0275 11.3619 9.60602 12.0342 9.60602V9.40602C11.2774 9.40602 10.6013 9.88048 10.3399 10.594L10.5277 10.6628ZM12.0342 9.60602H21.1221V9.40602H12.0342V9.60602ZM21.1221 9.60602C23.1684 9.60602 24.1708 12.1186 22.688 13.5412L22.8265 13.6855C24.4374 12.1399 23.3511 9.40602 21.1221 9.40602V9.60602ZM22.688 13.5412L20.8796 15.2764L21.0181 15.4208L22.8265 13.6855L22.688 13.5412ZM21.0254 15.2843C20.8626 15.0906 20.6883 14.9066 20.5034 14.7332L20.3666 14.8792C20.5458 15.047 20.7146 15.2254 20.8723 15.4129L21.0254 15.2843ZM20.5042 14.8783L22.3124 13.1434L22.1739 12.9991L20.3658 14.734L20.5042 14.8783ZM22.3124 13.1434C23.437 12.0644 22.679 10.1553 21.1221 10.1553V10.3553C22.4963 10.3553 23.1703 12.0431 22.1739 12.9991L22.3124 13.1434ZM21.1221 10.1553H12.0342V10.3553H21.1221V10.1553ZM12.0342 10.1553C11.5894 10.1553 11.1923 10.4341 11.0388 10.8531L11.2266 10.9219C11.3514 10.5811 11.6739 10.3553 12.0342 10.3553V10.1553ZM11.0979 10.9812L11.3339 11.0687L11.4035 10.8812L11.1674 10.7937L11.0979 10.9812ZM11.0388 10.8531C9.82164 14.175 12.2652 17.7024 15.7869 17.7024V17.5024C12.4059 17.5024 10.0567 14.1149 11.2266 10.9219L11.0388 10.8531ZM15.7869 17.7024H16.6942V17.5024H15.7869V17.7024ZM16.6942 17.7024C16.8441 17.7024 16.9667 17.8248 16.9667 17.977H17.1667C17.1667 17.7155 16.9557 17.5024 16.6942 17.5024V17.7024ZM16.9667 17.977C16.9667 18.1292 16.8441 18.2516 16.6942 18.2516V18.4516C16.9557 18.4516 17.1667 18.2386 17.1667 17.977H16.9667ZM16.6942 18.2516H15.7869V18.4516H16.6942V18.2516ZM15.7869 18.2516C14.4533 18.2516 13.2597 17.795 12.3197 17.047L12.1951 17.2035C13.1691 17.9786 14.4063 18.4516 15.7869 18.4516V18.2516ZM20.3546 15.4019C20.3134 15.3584 20.2892 15.3051 20.2816 15.2498L20.0835 15.2767C20.0964 15.3721 20.1384 15.4645 20.2095 15.5395L20.3546 15.4019ZM20.5014 15.4821C20.4473 15.4719 20.3957 15.4453 20.3546 15.4019L20.2095 15.5395C20.2805 15.6144 20.3703 15.661 20.4646 15.6787L20.5014 15.4821ZM20.1126 15.3347C20.215 15.4349 20.3135 15.5389 20.4079 15.6464L20.5582 15.5144C20.4604 15.4031 20.3585 15.2955 20.2525 15.1918L20.1126 15.3347ZM21.0011 15.6563C20.7445 15.3226 20.4536 15.015 20.1327 14.7399L20.0025 14.8917C20.3128 15.1578 20.5942 15.4553 20.8426 15.7783L21.0011 15.6563ZM20.1453 14.8788C20.159 14.8619 20.1739 14.8456 20.1901 14.8301L20.0516 14.6858C20.0294 14.7071 20.0089 14.7294 19.99 14.7527L20.1453 14.8788ZM20.9129 15.5941C20.8967 15.6097 20.8797 15.624 20.8622 15.6371L20.9816 15.7975C21.0058 15.7795 21.0291 15.7598 21.0514 15.7384L20.9129 15.5941ZM19.99 14.7527C19.7626 15.0328 19.7729 15.4457 20.0275 15.7141L20.1726 15.5765C19.988 15.3819 19.9804 15.0819 20.1453 14.8788L19.99 14.7527ZM20.0275 15.7141C20.2821 15.9827 20.6922 16.0127 20.9816 15.7975L20.8622 15.6371C20.6532 15.7925 20.3568 15.7708 20.1726 15.5765L20.0275 15.7141ZM21.8022 21.4591L21.6144 21.3903L21.8022 21.4591ZM9.06911 18.2035L8.93064 18.0592L9.06911 18.2035ZM11.0178 16.3337L10.8794 16.1894L11.0178 16.3337ZM11.9 16.3547L11.7549 16.4923H11.7549L11.9 16.3547ZM11.8792 17.242L11.7407 17.0977L11.8792 17.242ZM9.93044 19.1118L10.0689 19.2561L9.93044 19.1118ZM20.6313 21.025L20.8191 21.0938V21.0938L20.6313 21.025ZM9.96177 10.4534L10.1496 10.5222V10.5222L9.96177 10.4534ZM23.1045 13.9795L22.966 13.8352L23.1045 13.9795ZM21.2595 15.7498L21.121 15.6055L20.9964 15.7251L21.0966 15.8658L21.2595 15.7498ZM22.0382 21.5466L21.8504 21.4778L22.0382 21.5466ZM8.8955 18.0205L8.75703 17.8761H8.75703L8.8955 18.0205ZM10.7405 16.2502L10.879 16.3945L11.0036 16.2749L10.9034 16.1342L10.7405 16.2502ZM9.24272 18.3866L9.10425 18.2423H9.10425L9.24272 18.3866ZM11.0512 16.6514L11.2043 16.5227L11.0668 16.3592L10.9127 16.5071L11.0512 16.6514ZM21.5662 21.3716L21.3784 21.3028L21.5662 21.3716ZM20.848 16.0409L21.0108 15.9248L20.9227 15.8013L20.78 15.8528L20.848 16.0409ZM19.918 15.82L19.7729 15.9576L19.918 15.82ZM19.7426 14.8747L19.9275 14.9508L19.9848 14.8118L19.8671 14.7182L19.7426 14.8747ZM20.8673 21.1125L21.0551 21.1813V21.1813L20.8673 21.1125ZM9.75683 18.9288L9.61836 18.7844L9.75683 18.9288ZM11.565 17.1938L11.7035 17.3381L11.8557 17.1921L11.7018 17.0479L11.565 17.1938ZM10.1041 19.2949L9.96559 19.1506L10.1041 19.2949ZM11.9486 17.5251L12.073 17.3685L11.9362 17.2598L11.8101 17.3808L11.9486 17.5251ZM20.3953 20.9375L20.2075 20.8687V20.8687L20.3953 20.9375ZM20.0514 14.4749L19.927 14.6315L20.0638 14.7402L20.1899 14.6192L20.0514 14.4749ZM21.8959 12.7051L22.0344 12.8494L21.8959 12.7051ZM11.6047 11.0625L11.4169 10.9937V10.9937L11.6047 11.0625ZM15.3058 13.1953C14.8496 13.1953 14.4818 13.567 14.4818 14.023H14.8818C14.8818 13.7857 15.0727 13.5953 15.3058 13.5953V13.1953ZM16.2131 13.1953H15.3058V13.5953H16.2131V13.1953ZM19.9658 22.947C20.8702 22.947 21.6778 22.38 21.99 21.5279L21.6144 21.3903C21.3596 22.0859 20.7012 22.547 19.9658 22.547V22.947ZM10.8779 22.947H19.9658V22.547H10.8779V22.947ZM8.93064 18.0592C7.09139 19.824 8.33059 22.947 10.8779 22.947V22.547C8.69594 22.547 7.62475 19.8666 9.20758 18.3478L8.93064 18.0592ZM12.0451 16.2171C11.731 15.8858 11.2088 15.8733 10.8794 16.1894L11.1563 16.4781C11.3256 16.3156 11.5933 16.3219 11.7549 16.4923L12.0451 16.2171ZM12.0176 17.3863C12.3464 17.0709 12.3586 16.5477 12.0451 16.2171L11.7549 16.4923C11.9171 16.6633 11.9106 16.9347 11.7407 17.0977L12.0176 17.3863ZM10.8779 21.2917C9.82196 21.2917 9.30086 19.9931 10.0689 19.2561L9.79197 18.9675C8.7675 19.9505 9.45661 21.6917 10.8779 21.6917V21.2917ZM19.9658 21.2917H10.8779V21.6917H19.9658V21.2917ZM20.4435 20.9562C20.3694 21.1584 20.1784 21.2917 19.9658 21.2917V21.6917C20.3475 21.6917 20.6877 21.4525 20.8191 21.0938L20.4435 20.9562ZM16.2131 14.8506C19.3487 14.8506 21.5293 17.9928 20.4435 20.9562L20.8191 21.0938C21.9993 17.8726 19.6301 14.4506 16.2131 14.4506V14.8506ZM15.3058 14.8506H16.2131V14.4506H15.3058V14.8506ZM14.4818 14.023C14.4818 14.479 14.8496 14.8506 15.3058 14.8506V14.4506C15.0727 14.4506 14.8818 14.2603 14.8818 14.023H14.4818ZM10.8794 16.1894L8.93064 18.0592L9.20758 18.3478L11.1563 16.4781L10.8794 16.1894ZM10.0689 19.2561L12.0176 17.3863L11.7407 17.0977L9.79197 18.9675L10.0689 19.2561ZM12.0342 8.8C11.0244 8.8 10.1226 9.43305 9.77398 10.3846L10.1496 10.5222C10.4409 9.72716 11.1934 9.2 12.0342 9.2V8.8ZM21.1221 8.8H12.0342V9.2H21.1221V8.8ZM23.243 14.1239C25.2465 12.2015 23.8964 8.8 21.1221 8.8V9.2C23.531 9.2 24.7131 12.1589 22.966 13.8352L23.243 14.1239ZM21.398 15.8941L23.243 14.1239L22.966 13.8352L21.121 15.6055L21.398 15.8941ZM22.226 21.6154C23.0073 19.483 22.5969 17.2832 21.4224 15.6338L21.0966 15.8658C22.1993 17.4145 22.5836 19.4768 21.8504 21.4778L22.226 21.6154ZM19.9658 23.2C20.9756 23.2 21.8774 22.5669 22.226 21.6154L21.8504 21.4778C21.5591 22.2728 20.8066 22.8 19.9658 22.8V23.2ZM10.8779 23.2H19.9658V22.8H10.8779V23.2ZM8.75703 17.8761C6.75355 19.7985 8.10362 23.2 10.8779 23.2V22.8C8.46897 22.8 7.28691 19.8411 9.03396 18.1648L8.75703 17.8761ZM10.602 16.1059L8.75703 17.8761L9.03396 18.1648L10.879 16.3945L10.602 16.1059ZM9.77398 10.3846C8.99267 12.517 9.40309 14.7168 10.5776 16.3662L10.9034 16.1342C9.80067 14.5855 9.4164 12.5232 10.1496 10.5222L9.77398 10.3846ZM9.38119 18.5309L11.1896 16.7957L10.9127 16.5071L9.10425 18.2423L9.38119 18.5309ZM10.8779 22.294C8.9229 22.294 7.96259 19.8921 9.38119 18.5309L9.10425 18.2423C7.42923 19.8495 8.55755 22.694 10.8779 22.694V22.294ZM19.9658 22.294H10.8779V22.694H19.9658V22.294ZM21.3784 21.3028C21.16 21.8989 20.5958 22.294 19.9658 22.294V22.694C20.7649 22.694 21.4782 22.1931 21.754 21.4404L21.3784 21.3028ZM20.6852 16.1571C21.6976 17.5766 22.0508 19.4678 21.3784 21.3028L21.754 21.4404C22.4745 19.4739 22.0951 17.4451 21.0108 15.9248L20.6852 16.1571ZM19.7729 15.9576C20.0761 16.2773 20.5276 16.3694 20.916 16.229L20.78 15.8528C20.5362 15.9409 20.2534 15.8829 20.0631 15.6823L19.7729 15.9576ZM19.5576 14.7986C19.4003 15.1809 19.4698 15.6379 19.7729 15.9576L20.0631 15.6823C19.8726 15.4814 19.8278 15.1931 19.9275 14.9508L19.5576 14.7986ZM16.2131 13.8484C17.5232 13.8484 18.695 14.2967 19.6181 15.0312L19.8671 14.7182C18.8761 13.9296 17.6172 13.4484 16.2131 13.4484V13.8484ZM15.3058 13.8484H16.2131V13.4484H15.3058V13.8484ZM15.1333 14.023C15.1333 13.9254 15.2116 13.8484 15.3058 13.8484V13.4484C14.9885 13.4484 14.7333 13.7067 14.7333 14.023H15.1333ZM15.3058 14.1976C15.2116 14.1976 15.1333 14.1205 15.1333 14.023H14.7333C14.7333 14.3392 14.9885 14.5976 15.3058 14.5976V14.1976ZM16.2131 14.1976H15.3058V14.5976H16.2131V14.1976ZM21.0551 21.1813C22.2959 17.7949 19.8052 14.1976 16.2131 14.1976V14.5976C19.5237 14.5976 21.8258 17.9151 20.6795 21.0437L21.0551 21.1813ZM19.9658 21.9447C20.4528 21.9447 20.8873 21.6395 21.0551 21.1813L20.6795 21.0437C20.569 21.3453 20.2838 21.5447 19.9658 21.5447V21.9447ZM10.8779 21.9447H19.9658V21.5447H10.8779V21.9447ZM9.61836 18.7844C8.42966 19.925 9.22965 21.9447 10.8779 21.9447V21.5447C9.595 21.5447 8.96302 19.9676 9.8953 19.0731L9.61836 18.7844ZM11.4265 17.0495L9.61836 18.7844L9.8953 19.0731L11.7035 17.3381L11.4265 17.0495ZM10.8981 16.7801C11.0634 16.9767 11.2404 17.1637 11.4282 17.3397L11.7018 17.0479C11.5255 16.8827 11.3594 16.7073 11.2043 16.5227L10.8981 16.7801ZM10.2425 19.4392L12.0871 17.6694L11.8101 17.3808L9.96559 19.1506L10.2425 19.4392ZM10.8779 21.0387C10.0489 21.0387 9.6387 20.0186 10.2425 19.4392L9.96559 19.1506C9.10534 19.976 9.68358 21.4387 10.8779 21.4387V21.0387ZM19.9658 21.0387H10.8779V21.4387H19.9658V21.0387ZM20.2075 20.8687C20.1699 20.9715 20.0731 21.0387 19.9658 21.0387V21.4387C20.2421 21.4387 20.4881 21.2656 20.5831 21.0063L20.2075 20.8687ZM16.2131 15.1036C19.1737 15.1036 21.2328 18.0705 20.2075 20.8687L20.5831 21.0063C21.7028 17.9503 19.4551 14.7036 16.2131 14.7036V15.1036ZM15.3058 15.1036H16.2131V14.7036H15.3058V15.1036ZM14.2303 14.023C14.2303 14.6187 14.7107 15.1036 15.3058 15.1036V14.7036C14.9338 14.7036 14.6303 14.4 14.6303 14.023H14.2303ZM15.3058 12.9423C14.7107 12.9423 14.2303 13.4273 14.2303 14.023H14.6303C14.6303 13.646 14.9338 13.3423 15.3058 13.3423V12.9423ZM16.2131 12.9423H15.3058V13.3423H16.2131V12.9423ZM20.1759 14.3184C19.1009 13.4638 17.7357 12.9423 16.2131 12.9423V13.3423C17.6418 13.3423 18.9199 13.8309 19.927 14.6315L20.1759 14.3184ZM21.7575 12.5608L19.9129 14.3306L20.1899 14.6192L22.0344 12.8494L21.7575 12.5608ZM21.1221 10.9613C21.9511 10.9613 22.3613 11.9814 21.7575 12.5608L22.0344 12.8494C22.8947 12.024 22.3164 10.5613 21.1221 10.5613V10.9613ZM12.0342 10.9613H21.1221V10.5613H12.0342V10.9613ZM11.7925 11.1313C11.8301 11.0285 11.9269 10.9613 12.0342 10.9613V10.5613C11.7579 10.5613 11.5119 10.7344 11.4169 10.9937L11.7925 11.1313ZM15.7869 16.8964C12.8263 16.8964 10.7672 13.9295 11.7925 11.1313L11.4169 10.9937C10.2972 14.0497 12.5449 17.2964 15.7869 17.2964V16.8964ZM16.6942 16.8964H15.7869V17.2964H16.6942V16.8964ZM17.7697 17.977C17.7697 17.3813 17.2893 16.8964 16.6942 16.8964V17.2964C17.0662 17.2964 17.3697 17.6 17.3697 17.977H17.7697ZM16.6942 19.0577C17.2893 19.0577 17.7697 18.5727 17.7697 17.977H17.3697C17.3697 18.354 17.0662 18.6577 16.6942 18.6577V19.0577ZM15.7869 19.0577H16.6942V18.6577H15.7869V19.0577ZM11.8241 17.6816C12.8991 18.5362 14.2643 19.0577 15.7869 19.0577V18.6577C14.3582 18.6577 13.0801 18.1691 12.073 17.3685L11.8241 17.6816ZM21.99 21.5279C22.7704 19.398 22.3132 17.1983 21.0804 15.5954L20.7633 15.8392C21.9179 17.3404 22.3447 19.3972 21.6144 21.3903L21.99 21.5279ZM20.1978 14.664C19.1398 13.7565 17.7613 13.1953 16.2131 13.1953V13.5953C17.6616 13.5953 18.9487 14.1195 19.9374 14.9676L20.1978 14.664Z" fill="white" mask="url(#path-2-outside-1_40002031_2307)"/>
</svg>
